<?xml version="1.0" encoding="UTF-8" standalone="no"?>
<svg
   width="900px"
   height="900px"
   viewBox="0 0 900 900"
   version="1.1"
   xml:space="preserve"
   id="SVGRoot"
   inkscape:version="1.3.2 (091e20ef0f, 2023-11-25, custom)"
   sodipodi:docname="icon.svg"
   inkscape:export-filename="icon.png"
   inkscape:export-xdpi="109.22667"
   inkscape:export-ydpi="109.22667"
   xmlns:inkscape="http://www.inkscape.org/namespaces/inkscape"
   xmlns:sodipodi="http://sodipodi.sourceforge.net/DTD/sodipodi-0.dtd"
   xmlns="http://www.w3.org/2000/svg"
   xmlns:svg="http://www.w3.org/2000/svg"><defs
   id="defs2" />
<sodipodi:namedview
   pagecolor="#a9a9a9"
   bordercolor="#292929"
   borderopacity="1"
   inkscape:showpageshadow="2"
   inkscape:pageopacity="0.0"
   inkscape:pagecheckerboard="0"
   inkscape:deskcolor="#232323"
   id="namedview1"
   inkscape:zoom="0.52954441"
   inkscape:cx="254.93612"
   inkscape:cy="440.00087"
   inkscape:window-width="1707"
   inkscape:window-height="884"
   inkscape:window-x="0"
   inkscape:window-y="0"
   inkscape:window-maximized="1"
   inkscape:current-layer="SVGRoot" />
<style
   type="text/css"
   id="style1">
g.prefab path {
  vector-effect:non-scaling-stroke;
  -inkscape-stroke:hairline;
  fill: none;
  fill-opacity: 1;
  stroke-opacity: 1;
  stroke: #00349c;
}
</style>
<g
   inkscape:label="Target"
   style="display:none;fill:#ffffff;stroke:#000000;stroke-width:2"
   class="prefab"
   id="g2">
  <path
   d="M 849.53146,50.000002 H 49.707105 L 849.53146,850.00003 Z M 451.68747,50 H 850 V 850 H 451.68747 Z M 50.175632,450 H 849.99997 V 850 H 50.175632 Z m -10e-7,-399.999998 H 849.99998 L 50.175631,850.00003 Z"
   id="path1" />
  <path
   d="M 450,50 A 400,400 0 0 0 50,450 400,400 0 0 0 450,850 400,400 0 0 0 850,450 400,400 0 0 0 450,50 Z m 0,100 A 300,300 0 0 1 750,450 300,300 0 0 1 450,750 300,300 0 0 1 150,450 300,300 0 0 1 450,150 Z m 0,100 A 200,200 0 0 0 250,450 200,200 0 0 0 450,650 200,200 0 0 0 650,450 200,200 0 0 0 450,250 Z m 0,100 A 100,100 0 0 1 550,450 100,100 0 0 1 450,550 100,100 0 0 1 350,450 100,100 0 0 1 450,350 Z"
   id="path2" />
</g>
<path
   sodipodi:type="star"
   style="fill:none;stroke:#000000;stroke-width:68.65105767;stroke-dasharray:none"
   id="path8"
   inkscape:flatsided="true"
   sodipodi:sides="6"
   sodipodi:cx="452.39938"
   sodipodi:cy="449.72876"
   sodipodi:r1="384.36517"
   sodipodi:r2="332.87"
   sodipodi:arg1="0.52359878"
   sodipodi:arg2="1.0471976"
   inkscape:rounded="0"
   inkscape:randomized="0"
   d="m 785.26939,641.91135 -332.87001,192.18258 -332.87,-192.18259 0,-384.36517 332.87001,-192.182584 332.87,192.182584 z"
   transform="matrix(0.93225075,0,0,0.93225075,30.649715,30.468783)" /><path
   style="fill:none;stroke:#000000;stroke-width:64;stroke-dasharray:none"
   d="M 142.6071,449.72876 H 757.91972"
   id="path9" /><path
   style="fill:none;stroke:#000000;stroke-width:64;stroke-dasharray:none"
   d="m 223.03372,676.19969 c 0,0 118.22027,-57.68963 231.81217,-57.68963 113.5919,0 218.9911,57.68963 218.9911,57.68963"
   id="path10"
   sodipodi:nodetypes="czc" /><path
   style="fill:none;stroke:#000000;stroke-width:64;stroke-dasharray:none"
   d="m 223.03372,224.60843 c 0,0 118.22027,57.68963 231.81217,57.68963 113.5919,0 218.99111,-57.68963 218.99111,-57.68963"
   id="path10-6"
   sodipodi:nodetypes="czc" /><path
   style="fill:none;stroke:#000000;stroke-width:64;stroke-dasharray:none"
   d="m 453.92248,88.662602 c 0,0 -132.46187,222.197238 -134.60045,364.276648 -2.13858,142.07941 134.60045,347.1784 134.60045,347.1784"
   id="path11"
   sodipodi:nodetypes="czc" /><path
   style="fill:none;stroke:#000000;stroke-width:64;stroke-dasharray:none"
   d="m 448.7814,88.662895 c 0,0 132.46187,222.197235 134.60045,364.276645 2.13858,142.07941 -134.60045,347.1784 -134.60045,347.1784"
   id="path11-5"
   sodipodi:nodetypes="czc" /></svg>
